<svg id="visual" viewBox="0 0 600 900" width="600" height="900" xmlns="http://www.w3.org/2000/svg" xmlns:xlink="http://www.w3.org/1999/xlink" version="1.1"><rect x="0" y="0" width="600" height="900" fill="#931C1C"></rect><path d="M0 670L86 645L171 628L257 563L343 605L429 627L514 557L600 610L600 901L514 901L429 901L343 901L257 901L171 901L86 901L0 901Z" fill="#f5730a"></path><path d="M0 663L86 616L171 608L257 617L343 655L429 602L514 646L600 695L600 901L514 901L429 901L343 901L257 901L171 901L86 901L0 901Z" fill="#da5b09"></path><path d="M0 670L86 765L171 735L257 704L343 663L429 702L514 749L600 741L600 901L514 901L429 901L343 901L257 901L171 901L86 901L0 901Z" fill="#be4407"></path><path d="M0 754L86 732L171 761L257 797L343 809L429 787L514 728L600 739L600 901L514 901L429 901L343 901L257 901L171 901L86 901L0 901Z" fill="#a32d04"></path><path d="M0 861L86 837L171 796L257 796L343 838L429 837L514 812L600 856L600 901L514 901L429 901L343 901L257 901L171 901L86 901L0 901Z" fill="#871400"></path></svg>