<svg id="visual" viewBox="0 0 900 600" width="900" height="600" xmlns="http://www.w3.org/2000/svg" xmlns:xlink="http://www.w3.org/1999/xlink" version="1.1"><path d="M0 459L13.7 455C27.3 451 54.7 443 82 439.3C109.3 435.7 136.7 436.3 163.8 440.2C191 444 218 451 245.2 453.3C272.3 455.7 299.7 453.3 327 447.8C354.3 442.3 381.7 433.7 409 437.8C436.3 442 463.7 459 491 461.8C518.3 464.7 545.7 453.3 573 449.5C600.3 445.7 627.7 449.3 654.8 452.5C682 455.7 709 458.3 736.2 461.7C763.3 465 790.7 469 818 466.3C845.3 463.7 872.7 454.3 886.3 449.7L900 445L900 601L886.3 601C872.7 601 845.3 601 818 601C790.7 601 763.3 601 736.2 601C709 601 682 601 654.8 601C627.7 601 600.3 601 573 601C545.7 601 518.3 601 491 601C463.7 601 436.3 601 409 601C381.7 601 354.3 601 327 601C299.7 601 272.3 601 245.2 601C218 601 191 601 163.8 601C136.7 601 109.3 601 82 601C54.7 601 27.3 601 13.7 601L0 601Z" fill="#fa7268"></path><path d="M0 494L13.7 496.8C27.3 499.7 54.7 505.3 82 506C109.3 506.7 136.7 502.3 163.8 496.7C191 491 218 484 245.2 482.8C272.3 481.7 299.7 486.3 327 492.7C354.3 499 381.7 507 409 504.7C436.3 502.3 463.7 489.7 491 486.7C518.3 483.7 545.7 490.3 573 492.2C600.3 494 627.7 491 654.8 492.3C682 493.7 709 499.3 736.2 498.5C763.3 497.7 790.7 490.3 818 488.5C845.3 486.7 872.7 490.3 886.3 492.2L900 494L900 601L886.3 601C872.7 601 845.3 601 818 601C790.7 601 763.3 601 736.2 601C709 601 682 601 654.8 601C627.7 601 600.3 601 573 601C545.7 601 518.3 601 491 601C463.7 601 436.3 601 409 601C381.7 601 354.3 601 327 601C299.7 601 272.3 601 245.2 601C218 601 191 601 163.8 601C136.7 601 109.3 601 82 601C54.7 601 27.3 601 13.7 601L0 601Z" fill="#e34c67"></path><path d="M0 550L13.7 550C27.3 550 54.7 550 82 548C109.3 546 136.7 542 163.8 542.8C191 543.7 218 549.3 245.2 546.5C272.3 543.7 299.7 532.3 327 532C354.3 531.7 381.7 542.3 409 543C436.3 543.7 463.7 534.3 491 534.3C518.3 534.3 545.7 543.7 573 545.8C600.3 548 627.7 543 654.8 537.7C682 532.3 709 526.7 736.2 527.7C763.3 528.7 790.7 536.3 818 541.3C845.3 546.3 872.7 548.7 886.3 549.8L900 551L900 601L886.3 601C872.7 601 845.3 601 818 601C790.7 601 763.3 601 736.2 601C709 601 682 601 654.8 601C627.7 601 600.3 601 573 601C545.7 601 518.3 601 491 601C463.7 601 436.3 601 409 601C381.7 601 354.3 601 327 601C299.7 601 272.3 601 245.2 601C218 601 191 601 163.8 601C136.7 601 109.3 601 82 601C54.7 601 27.3 601 13.7 601L0 601Z" fill="#c62368"></path></svg>