<svg id="visual" viewBox="0 0 960 540" width="960" height="540" xmlns="http://www.w3.org/2000/svg" xmlns:xlink="http://www.w3.org/1999/xlink" version="1.1"><rect x="0" y="0" width="960" height="540" fill="#ca88a3"></rect><path d="M0 370L22.8 368.2C45.7 366.3 91.3 362.7 137 356.7C182.7 350.7 228.3 342.3 274 349.5C319.7 356.7 365.3 379.3 411.2 377.8C457 376.3 503 350.7 548.8 339.2C594.7 327.7 640.3 330.3 686 342.5C731.7 354.7 777.3 376.3 823 388C868.7 399.7 914.3 401.3 937.2 402.2L960 403L960 541L937.2 541C914.3 541 868.7 541 823 541C777.3 541 731.7 541 686 541C640.3 541 594.7 541 548.8 541C503 541 457 541 411.2 541C365.3 541 319.7 541 274 541C228.3 541 182.7 541 137 541C91.3 541 45.7 541 22.8 541L0 541Z" fill="#0e8388"></path><path d="M0 383L22.8 382.8C45.7 382.7 91.3 382.3 137 382.3C182.7 382.3 228.3 382.7 274 383.8C319.7 385 365.3 387 411.2 394C457 401 503 413 548.8 418.3C594.7 423.7 640.3 422.3 686 411.3C731.7 400.3 777.3 379.7 823 370.5C868.7 361.3 914.3 363.7 937.2 364.8L960 366L960 541L937.2 541C914.3 541 868.7 541 823 541C777.3 541 731.7 541 686 541C640.3 541 594.7 541 548.8 541C503 541 457 541 411.2 541C365.3 541 319.7 541 274 541C228.3 541 182.7 541 137 541C91.3 541 45.7 541 22.8 541L0 541Z" fill="#00789f"></path><path d="M0 429L22.8 432.7C45.7 436.3 91.3 443.7 137 444.5C182.7 445.3 228.3 439.7 274 433C319.7 426.3 365.3 418.7 411.2 420C457 421.3 503 431.7 548.8 436.5C594.7 441.3 640.3 440.7 686 440C731.7 439.3 777.3 438.7 823 433.5C868.7 428.3 914.3 418.7 937.2 413.8L960 409L960 541L937.2 541C914.3 541 868.7 541 823 541C777.3 541 731.7 541 686 541C640.3 541 594.7 541 548.8 541C503 541 457 541 411.2 541C365.3 541 319.7 541 274 541C228.3 541 182.7 541 137 541C91.3 541 45.7 541 22.8 541L0 541Z" fill="#0067ab"></path><path d="M0 482L22.8 481C45.7 480 91.3 478 137 472C182.7 466 228.3 456 274 454.2C319.7 452.3 365.3 458.7 411.2 465.5C457 472.3 503 479.7 548.8 476.3C594.7 473 640.3 459 686 456C731.7 453 777.3 461 823 464.5C868.7 468 914.3 467 937.2 466.5L960 466L960 541L937.2 541C914.3 541 868.7 541 823 541C777.3 541 731.7 541 686 541C640.3 541 594.7 541 548.8 541C503 541 457 541 411.2 541C365.3 541 319.7 541 274 541C228.3 541 182.7 541 137 541C91.3 541 45.7 541 22.8 541L0 541Z" fill="#0050ae"></path><path d="M0 477L22.8 477.8C45.7 478.7 91.3 480.3 137 481.8C182.7 483.3 228.3 484.7 274 488.8C319.7 493 365.3 500 411.2 499.3C457 498.7 503 490.3 548.8 491.8C594.7 493.3 640.3 504.7 686 505.7C731.7 506.7 777.3 497.3 823 493.5C868.7 489.7 914.3 491.3 937.2 492.2L960 493L960 541L937.2 541C914.3 541 868.7 541 823 541C777.3 541 731.7 541 686 541C640.3 541 594.7 541 548.8 541C503 541 457 541 411.2 541C365.3 541 319.7 541 274 541C228.3 541 182.7 541 137 541C91.3 541 45.7 541 22.8 541L0 541Z" fill="#1633a9"></path></svg>