<svg id="visual" viewBox="0 0 900 600" width="900" height="600" xmlns="http://www.w3.org/2000/svg" xmlns:xlink="http://www.w3.org/1999/xlink" version="1.1"><path d="M0 73L82 73L82 61L164 61L164 97L245 97L245 97L327 97L327 127L409 127L409 61L491 61L491 97L573 97L573 127L655 127L655 103L736 103L736 61L818 61L818 103L900 103L900 97L900 0L900 0L818 0L818 0L736 0L736 0L655 0L655 0L573 0L573 0L491 0L491 0L409 0L409 0L327 0L327 0L245 0L245 0L164 0L164 0L82 0L82 0L0 0Z" fill="#140021"></path><path d="M0 247L82 247L82 211L164 211L164 235L245 235L245 193L327 193L327 265L409 265L409 223L491 223L491 229L573 229L573 265L655 265L655 271L736 271L736 157L818 157L818 175L900 175L900 217L900 95L900 101L818 101L818 59L736 59L736 101L655 101L655 125L573 125L573 95L491 95L491 59L409 59L409 125L327 125L327 95L245 95L245 95L164 95L164 59L82 59L82 71L0 71Z" fill="#240b44"></path><path d="M0 469L82 469L82 355L164 355L164 361L245 361L245 325L327 325L327 463L409 463L409 469L491 469L491 391L573 391L573 409L655 409L655 397L736 397L736 445L818 445L818 427L900 427L900 379L900 215L900 173L818 173L818 155L736 155L736 269L655 269L655 263L573 263L573 227L491 227L491 221L409 221L409 263L327 263L327 191L245 191L245 233L164 233L164 209L82 209L82 245L0 245Z" fill="#3b0b69"></path><path d="M0 601L82 601L82 601L164 601L164 601L245 601L245 601L327 601L327 601L409 601L409 601L491 601L491 601L573 601L573 601L655 601L655 601L736 601L736 601L818 601L818 601L900 601L900 601L900 377L900 425L818 425L818 443L736 443L736 395L655 395L655 407L573 407L573 389L491 389L491 467L409 467L409 461L327 461L327 323L245 323L245 359L164 359L164 353L82 353L82 467L0 467Z" fill="#560090"></path></svg>