<svg id="visual" viewBox="0 0 900 600" width="900" height="600" xmlns="http://www.w3.org/2000/svg" xmlns:xlink="http://www.w3.org/1999/xlink" version="1.1"><path d="M0 169L82 205L164 283L245 85L327 199L409 145L491 115L573 163L655 121L736 103L818 115L900 109L900 0L818 0L736 0L655 0L573 0L491 0L409 0L327 0L245 0L164 0L82 0L0 0Z" fill="#060047"></path><path d="M0 259L82 289L164 349L245 175L327 247L409 235L491 169L573 211L655 211L736 175L818 211L900 211L900 107L818 113L736 101L655 119L573 161L491 113L409 143L327 197L245 83L164 281L82 203L0 167Z" fill="#49015b"></path><path d="M0 355L82 349L164 391L245 295L327 313L409 295L491 211L573 289L655 313L736 301L818 253L900 307L900 209L818 209L736 173L655 209L573 209L491 167L409 233L327 245L245 173L164 347L82 287L0 257Z" fill="#810067"></path><path d="M0 481L82 457L164 451L245 409L327 439L409 421L491 277L573 373L655 457L736 433L818 331L900 385L900 305L818 251L736 299L655 311L573 287L491 209L409 293L327 311L245 293L164 389L82 347L0 353Z" fill="#b7006b"></path><path d="M0 601L82 601L164 601L245 601L327 601L409 601L491 601L573 601L655 601L736 601L818 601L900 601L900 383L818 329L736 431L655 455L573 371L491 275L409 419L327 437L245 407L164 449L82 455L0 479Z" fill="#e90064"></path></svg>